<?xml version="1.0" encoding="UTF-8"?>
<svg width="282px" height="150px" viewBox="0 0 282 150" version="1.1" xmlns="http://www.w3.org/2000/svg" xmlns:xlink="http://www.w3.org/1999/xlink">
    <title>logo-enrique-tomas-argentina-header</title>
    <g id="Page-1" stroke="none" stroke-width="1" fill="none" fill-rule="evenodd">
        <g id="logo-enrique-tomas-argentina-header">
            <g id="Group-2" transform="translate(240.000000, 6.000000)">
                <rect id="Rectangle" stroke="#000000" stroke-width="2" fill="#00C4FF" x="1" y="1" width="40" height="136"></rect>
                <rect id="Rectangle" fill="#FFFFFF" x="2" y="48" width="38" height="42"></rect>
            </g>
            <g id="logo" fill="#000000" fill-rule="nonzero">
                <path d="M125.507431,5.87175125 L228.012948,5.87175125 C228.311549,5.87040009 228.598311,5.98842139 228.809456,6.19956668 C229.020602,6.41071196 229.137283,6.69747393 229.137283,6.99607539 L229.137283,143.001398 C229.137283,143.3 229.020602,143.586761 228.809456,143.797907 C228.598311,144.009052 228.311549,144.127073 228.012948,144.125722 L125.507431,144.125722 C125.507431,144.125722 114.643175,144.00192 114.643175,150 C114.643175,144.249524 103.77892,144.125722 103.77892,144.125722 L1.12433562,144.125722 C0.825734151,144.127073 0.538972186,144.009052 0.327826902,143.797907 C0.116681619,143.586761 0,143.3 0,143.001398 L0,6.99860196 C0,6.7000005 0.116681619,6.41323853 0.327826902,6.20209325 C0.538972186,5.99094797 0.825734151,5.87292666 1.12433562,5.87427782 L103.756181,5.87427782 C103.756181,5.87427782 114.620436,6.49834088 114.620436,0 C114.620436,6.3745389 125.370996,5.87427782 125.484692,5.87427782 L125.484692,5.87427782 L125.507431,5.87175125 Z M5.62414728,137.129647 C5.62414728,137.428248 5.7408289,137.71501 5.95197418,137.926156 C6.16311947,138.137301 6.44988143,138.255322 6.7484829,138.253993 L222.264998,138.253993 C222.5636,138.255322 222.850362,138.137301 223.061507,137.926156 C223.272652,137.71501 223.389348,137.428248 223.389348,137.129647 L223.389348,12.9992083 C223.389348,12.6997297 223.27329,12.4119269 223.061521,12.2001587 C222.849753,11.9883904 222.56195,11.8703226 222.262472,11.8723066 L6.75100947,11.8723066 C6.452408,11.8710065 6.16564604,11.9890278 5.95450076,12.2001731 C5.74335547,12.4113183 5.62414728,12.6980803 5.62668533,12.9966818 L5.62414728,137.129647 Z" id="Trazado_111"></path>
                <path d="M25.8771527,29.7503748 C26.633888,29.8332491 27.3854368,29.9580855 28.1283276,30.1243073 C29.138956,30.3769644 29.3789803,30.7483704 29.3789803,32.1253516 L29.3789803,49.6269097 C29.2551783,51.0013643 29.0050478,51.5016254 27.8781971,51.751756 C26.8088155,51.9752601 25.7212229,52.1004263 24.6290266,52.1256885 C24.5033187,52.4899219 24.5033187,52.8857792 24.6290266,53.2500126 C26.3799404,53.2500126 28.5047867,53.1262106 31.3800246,53.1262106 C35.7560458,53.1262106 38.8814142,53.2500126 42.4969375,53.2500126 C44.6217838,53.2500126 44.8719143,52.9973555 45.1220449,52.6259496 C45.9305605,50.8718322 46.5186763,49.0243168 46.8729586,47.1256043 C46.7491567,46.8729472 45.8623302,46.6202901 45.6223059,46.6202901 C45.0744348,47.8768796 44.3597209,49.0539055 43.4974596,50.119591 C42.7404723,51.0578146 41.5752052,51.5702683 40.3720912,51.4940457 C38.2851639,51.5567922 36.1964092,51.4723639 34.1213543,51.2413886 C33.4974176,51.0097174 33.0907831,50.4058653 33.1107258,49.7406054 C32.9869238,47.8658896 32.9869238,43.616197 32.9869238,41.7389547 C32.9869238,41.6151527 33.1107258,41.3650221 33.2395809,41.3650221 C34.8641662,41.3650221 38.3659937,41.3650221 39.6141198,41.4888241 C40.2969379,41.5222433 40.8909353,41.9672414 41.1149031,42.6131483 C41.2815474,43.1441442 41.4065699,43.6873161 41.4888356,44.2377335 C41.7414927,44.4903906 42.7394883,44.3615355 42.9896188,44.2377335 C42.9896188,43.2271051 42.8658169,42.1128872 42.8658169,40.612104 C42.8657306,39.3580374 42.9501408,38.10539 43.118474,36.8626724 C42.994672,36.6100153 41.9941498,36.6100153 41.7440193,36.7388705 C41.6511903,37.3010831 41.4811451,37.8477783 41.2387051,38.3634557 C41.0737322,39.0686275 40.4612827,39.5790021 39.7379218,39.6141084 C37.6293176,39.9366215 35.4952331,40.0618076 33.3633829,39.9880409 C33.2270804,39.9805212 33.1182455,39.8716863 33.1107258,39.7353838 L33.1107258,31.251158 C33.1519592,30.9336044 33.3387727,30.6533843 33.61604,30.4931867 L40.1345935,30.4931867 C41.5090482,30.6169887 41.8855073,30.9985009 42.2594398,31.9939699 C42.4898322,32.8140154 42.6587388,33.6501031 42.764754,34.4952753 C43.2212953,34.6369665 43.7153357,34.5924665 44.1392087,34.3714733 C44.2432884,32.5206005 44.4967705,30.6811653 44.89718,28.871128 C44.8291939,28.8028557 44.7856708,28.714033 44.773378,28.6184709 C43.8991844,28.7422729 41.6480096,28.7422729 40.0234244,28.7422729 L31.6276286,28.7422729 C29.2526517,28.7422729 27.0014769,28.6184709 26.0034813,28.6184709 C25.7508242,28.7422729 25.7508242,29.6290994 25.8796793,29.7427951" id="Trazado_112"></path>
                <path d="M48.7527275,29.7503748 C49.9342514,29.7474183 51.0966691,30.0484636 52.1282265,30.6245684 C52.8821041,30.9934635 53.3295745,31.7898601 53.2525507,32.6256127 C53.1287487,41.0011959 52.9998936,47.5020634 52.8786182,49.6269097 C52.7548162,51.1276929 52.2545551,51.751756 51.2540329,52.0018865 C50.6291277,52.1265307 49.8787361,52.2511749 49.0028581,52.375819 C48.8779252,52.740182 48.8779252,53.1357802 49.0028581,53.5001432 C49.8770517,53.5001432 51.5041635,53.3763412 54.1292709,53.3763412 C56.5042477,53.3763412 58.3789635,53.5001432 59.5058142,53.5001432 C59.6690449,53.1490252 59.7125375,52.7540414 59.6296162,52.375819 C58.505292,52.252017 57.7549004,52.1231619 57.1283108,52.0018865 C56.0039866,51.7492294 55.5037255,51.2439152 55.377397,49.6269097 C55.253595,47.3757348 55.253595,38.0046826 55.377397,33.8762654 C55.377397,33.8762654 55.501199,33.7524634 55.501199,33.8762654 C58.0025044,36.8753053 69.75106,50.6274318 72.0022349,53.7528003 L75.0012748,53.7528003 C75.0012748,52.3783456 74.8774728,50.1271707 74.8774728,48.252455 C75.0012748,40.6272634 75.0012748,35.5008506 75.2514053,32.5018107 C75.3752073,31.3774866 75.6253378,30.7508969 76.7521885,30.3769644 C77.2575028,30.2523202 77.882408,30.1276761 78.6269043,30.0030319 C78.751645,29.6386369 78.751645,29.2431027 78.6269043,28.8787077 C78.1215901,28.8787077 75.5015358,29.0025097 74.1270812,29.0025097 C71.5019738,29.0025097 69.627258,28.8787077 68.5029339,28.8787077 C68.3780009,29.2430707 68.3780009,29.6386689 68.5029339,30.0030319 C69.4754483,30.0779672 70.4383833,30.2472001 71.3781718,30.5083461 C72.6288245,30.8822786 72.878955,31.5189745 73.002757,32.6331924 C73.2554141,35.5084303 73.126559,43.0098199 73.126559,48.5101652 C73.126559,48.5101652 73.002757,48.6339672 73.002757,48.5101652 C71.0017127,46.2589904 62.252197,36.2588219 57.8761758,31.1349357 C57.262407,30.514056 56.7553304,29.7961244 56.3753926,29.0100894 L54.5006768,29.0100894 C52.3758305,29.0100894 50.2509842,28.8862875 49.1241335,28.8862875 C48.6188193,28.7624855 48.6188193,29.6442588 48.750201,29.7604811" id="Trazado_113"></path>
                <path d="M80.6304752,29.7604811 C81.5063532,29.8851252 82.2567448,30.0097694 82.88165,30.1344136 C84.0059742,30.3870707 84.2561047,30.8923849 84.2561047,32.0091293 L84.2561047,41.3827081 C84.2561047,43.633883 84.2561047,49.0078997 84.1323027,50.0084219 C84.0085008,51.5092051 83.7583702,52.0094662 82.6315195,52.2595968 C82.1262053,52.3833987 81.3808668,52.5122539 80.5066732,52.6335293 C80.2540161,52.7573313 80.2540161,53.6441577 80.5066732,53.7578534 C81.2646445,53.7578534 83.1317806,53.6340514 85.8832165,53.6340514 C88.6346524,53.6340514 90.7594987,53.7578534 91.5073638,53.7578534 C91.7600209,53.6340514 91.7600209,52.747225 91.6311658,52.6335293 C90.6205373,52.5097273 89.880252,52.3808722 89.2561889,52.2595968 C88.2455605,52.0069396 88.0055362,51.7542825 87.8817343,50.384881 C87.7579323,49.0154795 87.7579323,45.3847968 87.7579323,43.1336219 L87.8817343,42.8809648 L90.8807742,42.8809648 C91.3218705,42.9366187 91.7245496,43.1601283 92.0050983,43.5050279 C93.6296835,45.6298742 96.2547909,49.6294362 97.8793761,51.5066786 C98.4059646,52.2013195 99.09241,52.7586231 99.8804204,53.1312638 C102.101155,53.8274881 104.436148,54.0849294 106.75522,53.8892351 C107.015424,53.5769367 107.109453,53.1585079 107.007878,52.764911 C105.132181,52.7604264 103.351642,51.9384262 102.131595,50.5137361 C99.5526422,47.8465407 97.2101364,44.9604652 95.1304668,41.8880224 C95.1304668,41.7642204 95.1304668,41.6353653 95.2542687,41.6353653 C98.0653112,40.6820801 100.00212,38.1000024 100.130551,35.1344978 C100.130551,31.7589988 97.7555741,28.7599589 92.7554899,28.7599589 C91.0045761,28.7599589 88.8797298,28.8837609 85.6305594,28.8837609 C84.2561047,28.8837609 81.7547993,28.7599589 80.7542772,28.7599589 C80.6304752,28.7599589 80.5016201,29.6341525 80.6304752,29.7705873 M89.880252,30.0232445 C94.3800751,30.0232445 96.5049214,32.2744193 96.5049214,36.0238508 C96.6327275,37.979464 95.5386817,39.810583 93.7560121,40.6247368 C91.9525049,41.0301382 90.0974476,41.1562514 88.2556668,40.9986693 C88.1193643,40.9911496 88.0105294,40.8823147 88.0030097,40.7460122 C88.0030097,37.6206438 88.0030097,32.1202985 88.1268117,30.8696458 C88.1324842,30.6378518 88.2222876,30.4160372 88.3794688,30.2455827 C88.8719237,30.1202031 89.3738899,30.035697 89.880252,29.9929256" id="Trazado_114"></path>
                <path d="M106.757747,29.7604811 C107.650248,29.820209 108.531957,29.9899317 109.382854,30.2657953 C110.257048,30.5184524 110.393483,31.1399889 110.507179,32.140511 C110.63098,34.0152268 110.63098,36.6403342 110.63098,39.8920312 C110.63098,45.142246 110.63098,49.2681366 110.507179,50.3924607 C110.383377,51.2666543 110.254521,51.8932439 109.006395,52.1433745 C108.382332,52.2671765 107.755743,52.3960316 106.881549,52.517307 C106.756616,52.88167 106.756616,53.2772682 106.881549,53.6416312 C108.256004,53.6416312 110.38085,53.5178292 112.755827,53.5178292 C114.880673,53.5178292 117.25565,53.6416312 118.256172,53.6416312 C118.419403,53.2905132 118.462895,52.8955294 118.379974,52.517307 C117.369346,52.393505 116.505258,52.2646499 115.878669,52.1433745 C114.628016,51.8907174 114.377885,51.132746 114.377885,50.0185282 C114.254083,48.6440735 114.254083,44.7683134 114.254083,40.7687514 C114.254083,37.2694504 114.254083,33.8939514 114.377885,32.2693662 C114.501687,31.0187135 114.630543,30.5184524 115.628538,30.2683219 C116.133852,30.1445199 116.879191,30.0156647 117.753384,29.8943893 C117.879092,29.5301559 117.879092,29.1342986 117.753384,28.7700652 C116.62906,28.7700652 114.628016,28.8938672 112.50317,28.8938672 C110.251995,28.8938672 107.877018,28.7700652 107.002824,28.7700652 C106.628892,28.7700652 106.628892,29.6442588 106.750167,29.7806936" id="Trazado_115"></path>
                <path d="M159.259895,58.3764254 C159.350133,57.9568355 159.306844,57.5195272 159.136093,57.1257727 C157.369518,57.9178959 155.447284,58.30217 153.511945,58.2500969 C149.940085,57.9175244 146.484006,56.8086131 143.385448,55.0009264 C142.059319,54.3420033 140.678926,53.7984681 139.259558,53.3763412 C141.473621,52.7061866 143.490262,51.5048754 145.133836,49.8770402 C147.501552,47.2922006 148.758349,43.8802455 148.633137,40.3771328 C148.721287,36.9468746 147.362377,33.6377636 144.888899,31.259456 C142.415421,28.8811485 139.055564,27.6530549 135.631402,27.875659 C131.033018,27.7621478 126.643737,29.7952256 123.756517,33.3760043 C122.215801,35.5677824 121.426036,38.1994451 121.505343,40.8773939 C121.281064,45.1271051 123.267314,49.1913216 126.758084,51.6254274 C128.784511,52.9488137 131.100419,53.7635419 133.509082,54.0004043 C135.021985,54.2450726 136.468468,54.7980384 137.758774,55.6249895 C140.507684,57.1257727 141.758337,58.1262949 144.509772,59.5007495 C146.382195,60.5649287 148.482209,61.1653039 150.634181,61.2516633 C153.757913,61.3363416 156.811716,60.3184071 159.259895,58.3764254 M134.140725,29.6265728 C141.515786,29.6265728 144.641154,35.5008506 144.641154,41.8779161 C144.641154,48.2549816 141.265655,52.5046742 136.765832,52.5046742 C130.014834,52.5046742 125.765141,47.0043289 125.765141,39.8718186 C125.765141,34.7454059 128.266447,29.6215196 134.140725,29.6215196" id="Trazado_116"></path>
                <path d="M152.008636,29.7604811 C152.766607,29.884283 153.759549,30.0131382 154.25981,30.1344136 C155.134004,30.3870707 155.384135,31.0086072 155.510463,32.1354579 C155.634265,34.1365022 155.510463,44.3868012 155.884396,46.88558 C156.38971,51.2616012 159.383697,54.1368391 166.134695,54.1368391 C170.634518,54.1368391 175.260669,52.5122539 176.384994,47.1357106 C177.142965,44.3868012 177.009057,41.3852347 177.259187,33.259782 C177.259187,31.3850663 177.511844,30.6346747 178.75997,30.2607421 C179.265285,30.1369402 179.884295,30.008085 180.510884,29.8868096 C180.635817,29.5224466 180.635817,29.1268484 180.510884,28.7624855 C179.752913,28.7624855 177.885777,28.8862875 176.011061,28.8862875 C173.509756,28.8862875 171.63504,28.7624855 170.884648,28.7624855 C170.760846,28.8862875 170.631991,29.7731139 170.884648,29.8868096 C171.599999,29.9672718 172.309652,30.0921571 173.009495,30.2607421 C174.383949,30.5133992 174.88421,31.0187135 174.88421,33.0096515 C175.037397,36.8833588 174.996078,40.7623134 174.760408,44.6318786 C174.386476,51.0064175 170.884648,52.0069396 167.385347,52.0069396 C164.329396,52.3631743 161.378667,50.7629676 160.010286,48.0073776 C159.435786,46.7111016 159.176057,45.2973143 159.252315,43.881487 C159.128513,41.7566407 159.128513,36.3800974 159.252315,32.3805353 C159.252315,31.0060806 159.504972,30.5058195 160.502968,30.255689 C161.163061,30.0964958 161.830975,29.9716836 162.504012,29.8817565 C162.628945,29.5173935 162.628945,29.1217953 162.504012,28.7574323 C161.379688,28.7574323 159.504972,28.8812343 157.503928,28.8812343 C155.502883,28.8812343 152.882829,28.7498526 152.132437,28.7498526 C151.87978,28.7498526 151.87978,29.6240462 152.008636,29.7604811" id="Trazado_117"></path>
                <path d="M182.63573,29.7503748 C183.392466,29.8332491 184.144015,29.9580855 184.886905,30.1243073 C185.897534,30.3769644 186.137558,30.7483704 186.137558,32.1253516 L186.137558,49.6269097 C186.013756,51.0013643 185.763625,51.5016254 184.636775,51.751756 C183.567393,51.9752601 182.479801,52.1004263 181.387604,52.1256885 C181.261896,52.4899219 181.261896,52.8857792 181.387604,53.2500126 C183.138518,53.2500126 185.263364,53.1262106 188.138602,53.1262106 C192.514623,53.1262106 195.639992,53.2500126 199.255515,53.2500126 C201.380361,53.2500126 201.630492,52.9973555 201.880623,52.6259496 C202.689138,50.8718322 203.277254,49.0243168 203.631536,47.1256043 C203.507734,46.8729472 202.620908,46.6202901 202.380884,46.6202901 C201.833013,47.8768796 201.118299,49.0539055 200.256037,50.119591 C199.49905,51.0578146 198.333783,51.5702683 197.130669,51.4940457 C195.043742,51.5567922 192.954987,51.4723639 190.879932,51.2413886 C190.255995,51.0097174 189.849361,50.4058653 189.869304,49.7406054 C189.745502,47.8658896 189.745502,43.616197 189.745502,41.7389547 C189.745502,41.6151527 189.869304,41.3650221 189.998159,41.3650221 C191.622744,41.3650221 195.124571,41.3650221 196.372698,41.4888241 C197.055516,41.5222433 197.649513,41.9672414 197.873481,42.6131483 C198.040145,43.1441388 198.165168,43.6873122 198.247413,44.2377335 C198.50007,44.4903906 199.498066,44.3615355 199.748197,44.2377335 C199.748197,43.2271051 199.624395,42.1128872 199.624395,40.612104 C199.624324,39.3580379 199.708734,38.1053915 199.877052,36.8626724 C199.75325,36.6100153 198.752728,36.6100153 198.502597,36.7388705 C198.409768,37.3010831 198.239723,37.8477783 197.997283,38.3634557 C197.83231,39.0686275 197.21986,39.5790021 196.4965,39.6141084 C194.345076,39.9328082 192.169409,40.0579535 189.995632,39.9880409 C189.85933,39.9805212 189.750495,39.8716863 189.742975,39.7353838 L189.742975,31.251158 C189.784208,30.9336044 189.971022,30.6533843 190.248289,30.4931867 L196.749157,30.4931867 C198.123611,30.6169887 198.50007,30.9985009 198.874003,31.9939699 C199.104441,32.8140044 199.273348,33.6500955 199.379317,34.4952753 C199.835858,34.6369665 200.329899,34.5924665 200.753772,34.3714733 C200.857852,32.5206005 201.111334,30.6811653 201.511743,28.871128 C201.443757,28.8028557 201.400234,28.714033 201.387941,28.6184709 C200.513748,28.7422729 198.262573,28.7422729 196.637988,28.7422729 L188.262404,28.7422729 C185.887427,28.7422729 183.636253,28.6184709 182.638257,28.6184709 C182.514455,28.7422729 182.3856,29.6290994 182.638257,29.7427951" id="Trazado_118"></path>
                <path d="M63.2527191,89.7564385 C62.2746967,89.7300642 61.3058901,89.5597994 60.3774812,89.2511243 C59.3668528,88.9984672 59.0030265,88.493153 58.876698,87.126278 C58.752896,85.1252337 58.752896,73.9881083 58.752896,68.1239367 C58.752896,68.0001348 58.876698,67.8712796 59.0055531,67.7500042 L65.0061595,67.7500042 C65.740559,67.7110166 66.4085016,68.1732786 66.6307447,68.8743284 C67.0254886,70.0432054 67.2360261,71.2663682 67.2548077,72.4999579 C67.7044421,72.6248928 68.1796281,72.6248928 68.6292624,72.4999579 C68.7877894,70.2265179 69.1257173,67.9691594 69.6398909,65.7489599 C69.6398909,65.6251579 69.3872338,65.4963028 69.2659583,65.4963028 C67.9535395,66.0061476 66.544562,66.219263 65.1400677,66.1203658 L49.2529886,66.1203658 C48.0552575,66.1662898 46.8617045,65.9534323 45.7536876,65.4963028 C45.5818136,65.5220079 45.4126646,65.5634494 45.2483734,65.6201048 C45.0800398,67.8428295 44.7881911,70.0544692 44.3741798,72.2447742 C44.7608089,72.55432 45.2584726,72.6897138 45.7486345,72.6187067 C46.203775,71.3332123 46.746578,70.0804601 47.3732197,68.8692752 C47.7281499,68.2215678 48.3874749,67.7981917 49.1241335,67.7449511 L54.6244788,67.7449511 C54.7482808,67.7449511 54.8771359,67.8687531 54.8771359,68.1188836 C54.8771359,74.743553 54.8771359,83.3692668 54.7533339,86.4946352 C54.7533339,88.369351 54.5006768,89.1197426 53.1287487,89.3698732 C52.5046856,89.4936752 51.3778349,89.6225303 50.1297088,89.7438057 C50.0047759,90.1081687 50.0047759,90.5037669 50.1297088,90.8681298 C51.2540329,90.8681298 53.3788792,90.7443278 56.5042477,90.7443278 C59.1293551,90.7443278 61.6306605,90.8681298 62.8787866,90.8681298 C63.2527191,90.7443278 63.3841008,89.8575014 63.2527191,89.7438057" id="Trazado_119"></path>
                <path d="M86.5072796,91.5048258 C90.8714749,91.6000479 95.0316001,89.6595899 97.7631539,86.254611 C99.6077207,83.8644665 100.538603,80.8944241 100.388261,77.8790278 C100.493482,74.4192303 99.1205239,71.078304 96.6129401,68.6922416 C94.1053564,66.3061793 90.700402,65.1007384 87.2500915,65.3775539 C82.8904239,65.3295992 78.7310966,67.2049936 75.8805215,70.5039667 C74.1309704,72.7069975 73.2028302,75.4503262 73.2554141,78.2630666 C73.1574112,81.8226786 74.4591244,85.278795 76.8810437,87.8893025 C79.454962,90.3697357 82.936564,91.6810477 86.5072796,91.514932 M88.1318648,89.7640183 C86.2463521,89.7954525 84.3878085,89.3133491 82.7553215,88.369351 C79.1976342,85.8650566 77.16897,81.714303 77.3787782,77.3686604 C77.0810347,73.6610443 78.7998139,70.0796911 81.8786013,67.992555 C83.0925727,67.4256836 84.4145903,67.1274971 85.7543614,67.1183614 C87.7469616,67.1029716 89.701029,67.6674215 91.3785087,68.7429467 C94.6766964,71.2485127 96.5061386,75.2353695 96.2547909,79.3697047 C96.527942,82.7721814 95.1861214,86.1052114 92.6316879,88.369351 C91.294802,89.2499954 89.7326524,89.7271483 88.1318648,89.7438057" id="Trazado_120"></path>
                <path d="M104.380244,67.1259411 L107.379283,67.6312554 C108.144085,67.8650073 108.656863,68.5828968 108.629936,69.3821691 C108.377279,73.1316007 107.505612,83.3818996 107.129153,86.5072681 C106.876496,88.5083124 106.623839,89.0085735 105.254437,89.382506 C104.749123,89.506308 104.003784,89.6351631 103.129591,89.7564385 C103.00485,90.1208335 103.00485,90.5163677 103.129591,90.8807627 C103.887562,90.8807627 105.881027,90.7569607 108.256004,90.7569607 C110.38085,90.7569607 112.505696,90.8807627 113.256088,90.8807627 C113.508745,90.7569607 113.508745,89.8701342 113.37989,89.7564385 C112.485733,89.7099064 111.602318,89.5398553 110.754782,89.2511243 C109.50413,88.8771918 109.380328,88.1268002 109.380328,86.6260169 C109.380328,83.2505179 110.004391,74.3746737 110.254521,70.8753727 C110.254521,70.7515707 110.378323,70.7515707 110.507179,70.7515707 C112.007962,74.1270697 118.382501,87.5027371 119.506825,90.7519076 C119.92754,90.7728142 120.349027,90.7310913 120.757477,90.6281056 C122.258261,86.7523455 129.133061,73.1265475 130.383713,70.7515707 C130.507515,70.6277687 130.507515,70.6277687 130.636371,70.7515707 C130.760173,74.3772002 130.889028,84.7513012 130.760173,87.3764086 C130.760173,88.2506022 130.507515,88.8771918 129.635848,89.1273223 C129.130534,89.2511243 128.385196,89.3799795 127.384674,89.6326366 C127.259741,89.9969995 127.259741,90.3925977 127.384674,90.7569607 C128.508998,90.7569607 130.760173,90.6331587 133.008821,90.6331587 C135.633928,90.6331587 137.634972,90.7569607 138.632968,90.7569607 C138.75677,90.5043036 138.885625,89.7463323 138.632968,89.6326366 C137.62234,89.5088346 136.882054,89.3799795 136.257991,89.258704 C135.007339,88.8847715 134.757208,88.3845104 134.633406,87.0075292 C134.380749,84.2586198 134.128092,71.5070154 134.128092,69.1320386 C134.067794,68.7490309 134.167604,68.3580774 134.40412,68.050846 C134.640635,67.7436146 134.993054,67.5471267 135.378744,67.5074534 C136.002808,67.3836514 136.879528,67.2547963 138.127654,67.0021392 C138.252395,66.6377442 138.252395,66.24221 138.127654,65.877815 C136.252938,65.877815 134.752155,66.001617 130.626264,66.001617 C130.447076,66.7339979 130.193084,67.4460215 129.868293,68.1264633 C127.993577,72.1260254 122.366903,83.126716 121.619038,84.3773687 C121.619038,84.5011706 121.495236,84.5011706 121.495236,84.3773687 C120.871173,83.2530445 115.871089,73.3766781 113.369784,68.2502653 C112.94917,67.522372 112.690626,66.7122666 112.611812,65.8752885 C108.235791,65.8752885 106.361075,65.7514865 104.860292,65.7514865 C104.236229,66.125419 104.102321,67.0021392 104.354978,67.1259411" id="Trazado_121"></path>
                <path d="M138.008905,89.7513854 C137.884164,90.1157804 137.884164,90.5113146 138.008905,90.8757095 C138.766876,90.8757095 140.133751,90.7519076 142.508728,90.7519076 C144.883705,90.7519076 147.008551,90.8757095 148.009073,90.8757095 C148.172304,90.5245916 148.215797,90.1296078 148.132875,89.7513854 C147.374904,89.6275834 146.632092,89.4987283 146.131831,89.3774529 C144.757376,89.0035204 144.757376,88.6194815 144.757376,87.8766696 C144.881178,86.8660412 146.25816,83.5006485 147.008551,81.3758022 C147.063326,81.1967723 147.203454,81.0566447 147.382484,81.0018697 L154.883873,81.0018697 C155.007675,81.0018697 155.257806,81.1256716 155.257806,81.2545268 C156.015777,83.0054405 157.25885,86.3809395 157.759111,88.1293268 C157.882913,88.5032593 157.882913,88.8872981 157.253797,89.1399552 C156.486237,89.4065191 155.688415,89.5762684 154.87882,89.6452694 C154.75408,90.0096644 154.75408,90.4051986 154.87882,90.7695936 C155.753014,90.7695936 158.378121,90.6457916 160.502968,90.6457916 C162.377683,90.6457916 164.628858,90.7695936 165.753182,90.7695936 C165.916413,90.4184756 165.959906,90.0234918 165.876984,89.6452694 C162.751616,89.2713369 162.501485,89.1399552 161.250833,86.396099 C159.750049,83.0206 155.000096,70.3953242 154.125902,68.1441493 C153.877357,67.4484039 153.668993,66.7389527 153.501839,66.019303 L150.75293,66.019303 C150.558102,66.7879411 150.304704,67.5405326 149.994958,68.2704779 C149.120765,70.7717833 144.994874,81.0220822 142.870028,85.8958379 C141.619375,89.1450083 141.119114,89.3951389 137.993746,89.771598 M151.369413,70.2715222 C151.993476,72.022436 153.620588,76.3959305 154.494781,78.8972359 C154.536363,78.9615196 154.546553,79.0411903 154.52249,79.1138702 C154.498427,79.1865501 154.442707,79.244399 154.370979,79.2711685 L148.135402,79.2711685 C148.0116,79.2711685 148.0116,79.1473665 148.0116,79.0185113 C148.769571,76.893665 150.512905,72.3938419 151.26077,70.3927976 C151.136968,70.2689956 151.26077,70.2689956 151.384572,70.2689956" id="Trazado_122"></path>
                <path d="M168.135739,83.8771076 C167.645577,83.8061005 167.147913,83.9414943 166.761284,84.2510401 C166.906753,86.2983371 167.327422,88.316698 168.011937,90.2516465 C169.95288,91.0620937 172.033051,91.4868811 174.136345,91.5022992 C180.136952,91.5022992 183.636253,88.0029982 183.636253,84.1272381 C183.511874,81.5362991 181.9054,79.2490665 179.510362,78.2529603 C178.009579,77.494989 175.884732,76.5020465 174.260147,75.5040509 C172.49656,74.6380199 171.380703,72.8426464 171.384909,70.8778992 C171.395433,69.7206666 171.885661,68.6196804 172.738656,67.8375691 C173.591651,67.0554578 174.730931,66.6623468 175.884732,66.7520086 C177.109555,66.7142828 178.320854,67.0168889 179.384033,67.6262022 C180.394662,68.2502653 180.758488,69.377116 181.008619,71.7520928 C181.132421,72.00475 182.132943,72.00475 182.259271,71.7520928 C182.354611,69.9003839 182.608193,68.0602258 183.017243,66.2517475 C180.877966,65.8011893 178.701925,65.5474729 176.516375,65.4937762 C171.890224,65.4937762 168.140792,67.9950816 168.140792,72.2447742 C168.140792,75.8704037 170.642097,77.8689215 174.515331,79.8699658 C178.391091,81.9948121 180.139478,83.2454648 180.139478,85.8705722 C180.16214,87.0487972 179.686582,88.181887 178.829825,88.9910195 C177.973069,89.800152 176.814661,90.210201 175.639655,90.1202648 C174.180719,90.1853021 172.738005,89.7921557 171.513764,88.9959406 C169.774492,87.7816125 168.566543,85.9470838 168.138265,83.8695279" id="Trazado_123"></path>
                <polygon id="Trazado_124" points="49.0053846 127.005676 38.252298 120.754939 28.125801 126.879348 32.1253631 116.378918 21.8775907 109.630447 34.7631033 109.506645 38.5024286 99.2538193 42.6283192 109.504118 54.8796625 109.878051 45.1220449 116.378918"></polygon>
                <polygon id="Trazado_125" points="87.2551446 127.005676 76.502058 120.754939 66.375561 126.879348 70.2513211 116.378918 60.1273507 109.630447 73.0128633 109.506645 76.6283866 99.2538193 80.8780792 109.504118 93.1294224 109.878051 83.3718048 116.378918"></polygon>
                <polygon id="Trazado_126" points="126.257823 127.005676 115.507263 120.754939 105.380766 126.879348 109.256526 116.378918 99.1300288 109.630447 112.015541 109.506645 115.754867 99.2538193 119.880757 109.504118 132.132101 109.878051 122.374483 116.378918"></polygon>
                <polygon id="Trazado_127" points="163.759718 127.005676 153.009158 120.754939 142.882661 126.879348 146.758421 116.378918 136.631924 109.630447 149.517436 109.506645 153.256762 99.2538193 157.382652 109.504118 169.633996 109.878051 159.876378 116.378918"></polygon>
                <polygon id="Trazado_128" points="201.137811 127.005676 190.511053 120.754939 180.260754 126.879348 184.260316 116.378918 174.010017 109.630447 186.895529 109.506645 190.634855 99.2538193 194.760745 109.504118 207.140944 109.878051 197.390906 116.378918"></polygon>
            </g>
        </g>
    </g>
</svg>